<svg xmlns="http://www.w3.org/2000/svg" width="420" height="94.458" viewBox="0 0 420 94.458">
  <g id="グループ_1638" data-name="グループ 1638" transform="translate(-996.432 378.357)">
    <path id="パス_503" data-name="パス 503" d="M1155.757-313.458a3.691,3.691,0,0,1-3.692,3.777,3.549,3.549,0,0,1-2.937-1.259l-14.014-16.531-6.294,5.875v8.138a3.834,3.834,0,0,1-3.86,3.777,3.744,3.744,0,0,1-3.691-3.777v-49.257a3.762,3.762,0,0,1,3.774-3.777,3.817,3.817,0,0,1,3.778,3.777v32.641l20.391-20.054a3.284,3.284,0,0,1,2.434-.922,3.526,3.526,0,0,1,3.438,3.524,3.6,3.6,0,0,1-1.091,2.434l-13.337,13.007,14.178,16.113a4.04,4.04,0,0,1,.923,2.516" transform="translate(47.163 4.483)" fill="#231f20"/>
    <path id="パス_504" data-name="パス 504" d="M1149.242-363.049a4.852,4.852,0,0,1,4.867-4.783,4.8,4.8,0,0,1,4.865,4.783,4.868,4.868,0,0,1-4.865,4.867,4.924,4.924,0,0,1-4.867-4.867m1.174,50.1v-33.816a3.761,3.761,0,0,1,3.776-3.776,3.816,3.816,0,0,1,3.778,3.776v33.816a3.834,3.834,0,0,1-3.86,3.777,3.744,3.744,0,0,1-3.693-3.777" transform="translate(57.729 3.976)" fill="#231f20"/>
    <path id="パス_505" data-name="パス 505" d="M1196.879-342.621v25.089a3.833,3.833,0,0,1-3.858,3.779,3.744,3.744,0,0,1-3.693-3.779V-340.1c0-6.713-3.441-8.894-8.645-8.894a14.475,14.475,0,0,0-11.159,5.873v25.593a3.815,3.815,0,0,1-3.774,3.779,3.764,3.764,0,0,1-3.78-3.779v-33.814a3.744,3.744,0,0,1,3.693-3.778,3.832,3.832,0,0,1,3.86,3.778v2.263a19.9,19.9,0,0,1,14.349-6.63c8.561,0,13.007,4.532,13.007,13.092" transform="translate(62.538 8.554)" fill="#231f20"/>
    <path id="パス_506" data-name="パス 506" d="M1214.251-314.32a2.857,2.857,0,0,1-1.927,2.855,13.562,13.562,0,0,1-5.791,1.174c-6.377,0-9.65-3.607-9.65-9.984V-345.2h-3.86a3.419,3.419,0,0,1-3.354-3.358,3.4,3.4,0,0,1,3.354-3.272h3.86v-7.718a3.762,3.762,0,0,1,3.776-3.779,3.812,3.812,0,0,1,3.773,3.779v7.718h5.292a3.351,3.351,0,0,1,3.354,3.272,3.368,3.368,0,0,1-3.354,3.358h-5.292v23.243c0,2.852,1.344,4.952,3.949,4.952,1.425,0,1.928-.5,2.683-.5a3.037,3.037,0,0,1,3.187,3.188" transform="translate(73.001 5.679)" fill="#231f20"/>
    <path id="パス_507" data-name="パス 507" d="M1207.676-334.482c0-11.663,7.884-21.23,20.473-21.23,12.669,0,20.474,9.568,20.474,21.23,0,11.75-7.8,21.316-20.474,21.316-12.589,0-20.473-9.566-20.473-21.316m33.058,0c0-7.634-4.448-14.514-12.585-14.514-8.06,0-12.589,6.88-12.589,14.514,0,7.72,4.53,14.6,12.589,14.6,8.137,0,12.585-6.882,12.585-14.6" transform="translate(79.803 8.555)" fill="#231f20"/>
    <path id="パス_508" data-name="パス 508" d="M1277.115-342.621v25.089a3.835,3.835,0,0,1-3.86,3.779,3.746,3.746,0,0,1-3.694-3.779V-340.1c0-6.713-3.441-8.894-8.643-8.894a14.483,14.483,0,0,0-11.161,5.873v25.593a3.815,3.815,0,0,1-3.775,3.779,3.761,3.761,0,0,1-3.776-3.779v-33.814a3.743,3.743,0,0,1,3.692-3.778,3.832,3.832,0,0,1,3.86,3.778v2.263a19.9,19.9,0,0,1,14.349-6.63c8.558,0,13.009,4.532,13.009,13.092" transform="translate(92.85 8.554)" fill="#231f20"/>
    <path id="パス_509" data-name="パス 509" d="M1292.527-355.712c12.163,0,19.717,9.483,19.717,20.141,0,2.265-1.594,3.608-4.445,3.608h-27.608c.588,6.88,5.621,12.587,13.761,12.587a17.375,17.375,0,0,0,10.071-3.273,2.636,2.636,0,0,1,1.678-.422,3.011,3.011,0,0,1,3.021,3.024,2.956,2.956,0,0,1-1.345,2.516,23.5,23.5,0,0,1-14.182,4.363c-12.081,0-20.977-8.559-20.977-21.314,0-11.747,8.474-21.23,20.309-21.23m-12.42,18.293h24.753c-.169-5.37-3.776-12.083-12.332-12.083-8.141,0-12,6.546-12.42,12.083" transform="translate(104.188 8.555)" fill="#231f20"/>
    <g id="グループ_653" data-name="グループ 653" transform="translate(996.432 -378.357)">
      <path id="パス_510" data-name="パス 510" d="M1023.463-317.949l23.612-14.61a1.168,1.168,0,0,1,1.772,1.023v29.205a1.167,1.167,0,0,1-1.772,1.022l-23.612-14.6a1.208,1.208,0,0,1,0-2.043" transform="translate(-987.234 395.593)" fill="#ef3f24"/>
      <path id="パス_511" data-name="パス 511" d="M1023.57-310.379l-26.4-16.327a1.568,1.568,0,0,1-.74-1.34v-33.1a1.134,1.134,0,0,1,1.72-.992l26.384,16.326a1.585,1.585,0,0,1,.749,1.341l0,33.1a1.134,1.134,0,0,1-1.72.992" transform="translate(-996.432 384.421)" fill="#ef3f24"/>
      <path id="パス_512" data-name="パス 512" d="M1025.718-343.233l-26.6-16.457a1.171,1.171,0,0,1,0-1.982l26.556-16.458a1.5,1.5,0,0,1,1.589,0l26.587,16.458a1.173,1.173,0,0,1,0,1.983l-26.543,16.456a1.5,1.5,0,0,1-1.588,0" transform="translate(-995.689 378.357)" fill="#ef3f24"/>
      <path id="パス_513" data-name="パス 513" d="M1046.268-330.666l-23.748,14.689a1.168,1.168,0,0,1-1.772-1.022v-29.376a1.167,1.167,0,0,1,1.772-1.023l23.748,14.688a1.208,1.208,0,0,1,0,2.043" transform="translate(-987.981 389.987)" fill="#ef3f24"/>
      <path id="パス_514" data-name="パス 514" d="M1047.075-330.875l-23.614-14.581a1.209,1.209,0,0,1,0-2.043l23.614-14.621a1.169,1.169,0,0,1,1.774,1.021v29.2a1.168,1.168,0,0,1-1.774,1.021" transform="translate(-987.234 384.425)" fill="#ef3f24"/>
      <path id="パス_515" data-name="パス 515" d="M1070.426-317.949l-23.61-14.61a1.167,1.167,0,0,0-1.771,1.023v29.205a1.166,1.166,0,0,0,1.771,1.022l23.608-14.6a1.207,1.207,0,0,0,0-2.043" transform="translate(-979.54 395.593)" fill="#ef3f24"/>
      <path id="パス_516" data-name="パス 516" d="M1071.07-310.379l26.4-16.327a1.578,1.578,0,0,0,.74-1.34v-33.1a1.134,1.134,0,0,0-1.721-.992L1070.1-345.81a1.585,1.585,0,0,0-.749,1.341l0,33.1a1.134,1.134,0,0,0,1.72.992" transform="translate(-971.093 384.421)" fill="#ef3f24"/>
      <path id="パス_517" data-name="パス 517" d="M1075.878-343.233l26.6-16.457a1.171,1.171,0,0,0,0-1.982l-26.556-16.458a1.5,1.5,0,0,0-1.589,0l-26.588,16.458a1.174,1.174,0,0,0,0,1.983l26.543,16.456a1.5,1.5,0,0,0,1.589,0" transform="translate(-978.788 378.357)" fill="#ef3f24"/>
      <path id="パス_518" data-name="パス 518" d="M1047.654-330.666l23.747,14.689a1.168,1.168,0,0,0,1.772-1.022v-29.376a1.167,1.167,0,0,0-1.772-1.023l-23.747,14.688a1.21,1.21,0,0,0,0,2.043" transform="translate(-978.827 389.987)" fill="#ef3f24"/>
      <path id="パス_519" data-name="パス 519" d="M1046.815-330.875l23.614-14.581a1.21,1.21,0,0,0,0-2.043l-23.614-14.621a1.167,1.167,0,0,0-1.771,1.021v29.2a1.166,1.166,0,0,0,1.771,1.021" transform="translate(-979.54 384.425)" fill="#ef3f24"/>
    </g>
  </g>
</svg>
