<?xml version="1.0" encoding="UTF-8"?>
<svg xmlns="http://www.w3.org/2000/svg" version="1.1" viewBox="0 0 187 22.2">
  <defs>
    <style>
      .mcLogo0 {
        opacity: .7;
      }

      .mcLogo0, .mcLogo1 {
        fill: #3b94a3;
      }
    </style>
  </defs>
  <path class="mcLogo1" d="M7.3,0H0v7.3h7.3V0Z" />
  <path class="mcLogo1" d="M14.6,0v7.3h7.3v14.6h7.3V7.3L21.9,0h-7.3Z" />
  <path class="mcLogo1" d="M36.5,0h-7.3v7.3h7.3v14.6h7.3V7.3l-7.3-7.3Z" />
  <path class="mcLogo1" d="M7.3,14.6v7.3h7.3V7.3h-7.3v7.3Z" />
  <g>
    <path class="mcLogo1" d="M53.5,7.3h3.4l3.8,9.1,3.7-9.1h3.4v14.6h-2.8v-9.8l-3.4,8h-2.2l-3.2-7.9h0v9.6h-2.6V7.3Z" />
    <path class="mcLogo1" d="M69.8,19c0-2,1.9-3.2,3.8-3.2h2.8v-1c0-1.2-.7-1.6-1.9-1.6s-1.9.4-1.9,1v.4h-2.2v-.3c0-2.3,2.2-3.1,4.1-3.1s4.5.7,4.5,3.4v5.1c0,.4,0,2,0,2.2h-2.5c0-.1,0-.7,0-1-.9,1-1.8,1.2-3.1,1.2-2.1,0-3.6-1.2-3.6-3.1ZM76.4,18v-.4h-2.5c-1,0-1.8.4-1.8,1.3s.7,1.3,1.9,1.3c2.1,0,2.4-1.1,2.4-2.2Z" />
    <path class="mcLogo1" d="M80.8,20.2l1.8-1.3c.6.9,1.8,1.3,2.9,1.3s2-.3,2-1.3-.6-1-1.9-1.3l-1.3-.3c-1.8-.3-2.9-1.2-2.9-2.8s1.9-3.5,4.1-3.5,3.2.4,4.1,1.8l-1.8,1.2c-.6-.4-1.3-.7-2.3-.7s-1.8.4-1.8,1.2.9.9,2,1l1.6.3c1.8.3,2.8,1.3,2.8,2.9,0,2.5-2.5,3.5-4.7,3.5-1.7-.1-3.6-.6-4.6-2Z" />
    <path class="mcLogo1" d="M92.3,19.4v-6h-1.5v-2h1.5v-3.2h2.7v3.2h2.3v2h-2.3v5.4c0,.7.4,1,1,1s.7,0,1.3-.1v2.2c-.6.1-1.5.1-1.9.1-1.8.1-3.1-.7-3.1-2.6Z" />
    <path class="mcLogo1" d="M98.3,17.8v-2c0-2.9,2.2-4.5,4.8-4.5s4.5,1.3,4.5,4.1v2h-6.6v.6c0,1.3,1,2,2.5,2s1.8-.6,2.3-1.3l1.9,1.2c-.9,1.6-2.5,2.3-4.4,2.3s-5-1.5-5-4.4ZM105.2,15.6v-.3c0-1.5-1-2-2-2s-2.2.6-2.2,2.2h0c0,.1,4.2.1,4.2.1Z" />
    <path class="mcLogo1" d="M109.9,11.4h2.5v1.8c.6-1.2,2.2-1.9,3.4-1.9h.9v2.3h-.9c-1.9,0-3.4,1-3.4,3.1v5.3h-2.5v-10.6Z" />
    <path class="mcLogo0" d="M184.5,7.6h-.4v-.3h1.2v.3h-.4v1.3h-.3v-1.3h-.1Z" />
    <path class="mcLogo0" d="M185.5,7.3h.3l.4,1,.4-1h.3v1.6h-.3v-1l-.3.9h-.3l-.3-.9v1h-.3v-1.6h.1Z" />
    <path class="mcLogo0" d="M118,17.1v-4.7c0-3.5,2.6-5.4,5.8-5.4s5.6,1.6,5.6,4.8v.4h-2.6c0-2-1.6-2.7-2.9-2.7s-3.1.7-3.1,2.8v4.7c0,1.8,1.5,2.8,3.2,2.8s2.9-.7,2.9-2.6h0c0-.1,2.6-.1,2.6-.1v.4c0,3.2-2.6,4.8-5.4,4.8-3.3,0-6.1-2-6.1-5.2Z" />
    <path class="mcLogo0" d="M131.3,18v-2.3c0-2.8,2.5-4.4,4.7-4.4s4.8,1.8,4.8,4.4v2.2c0,2.8-2.5,4.4-4.7,4.4-2.6,0-4.8-1.6-4.8-4.3ZM138.4,18v-2.6c0-1.3-1-2-2.3-2s-2.2.6-2.2,2v2.6c0,1.3,1,2,2.3,2s2.2-.6,2.2-2Z" />
    <path class="mcLogo0" d="M142.6,11.4h2.5v1.3c.7-1,1.8-1.5,2.9-1.5,2.3,0,3.7,1.5,3.7,3.9v6.7h-2.5v-6.1c0-1.6-.7-2.5-1.9-2.5s-2.2.9-2.2,2.6v5.8h-2.5v-10.2Z" />
    <path class="mcLogo0" d="M154.7,19.4v-6h-1.5v-2h1.5v-3.2h2.5v3.2h2.3v2h-2.3v5.4c0,.7.4,1,1,1s.7,0,1.3-.1v2.2c-.6.1-1.5.1-1.9.1-1.6.1-2.9-.7-2.9-2.6Z" />
    <path class="mcLogo0" d="M161,11.4h2.5v1.8c.6-1.2,2.2-1.9,3.4-1.9h.9v2.3h-.9c-1.9,0-3.4,1-3.4,3.1v5.3h-2.5v-10.6Z" />
    <path class="mcLogo0" d="M168.6,18v-2.3c0-2.8,2.5-4.4,4.7-4.4s4.8,1.8,4.8,4.4v2.2c0,2.8-2.5,4.4-4.7,4.4-2.6,0-4.8-1.6-4.8-4.3ZM175.6,18v-2.6c0-1.3-1-2-2.3-2s-2.2.6-2.2,2v2.6c0,1.3,1,2,2.3,2s2.2-.6,2.2-2Z" />
    <path class="mcLogo0" d="M179.8,19.1V7.3h2.5v11.8c0,.4.3.9.9.9s.7,0,1.2-.1v1.9c-.6.1-1.3.3-2,.3-2.4,0-2.6-2.1-2.6-3Z" />
  </g>
</svg>