<svg width="585" height="203" viewBox="0 0 585 203" fill="none" xmlns="http://www.w3.org/2000/svg">
<path d="M220.771 51.199C220.771 71.14 235.539 85.852 260.203 85.852C270.611 85.852 280.427 84.206 290.582 79.463L299.808 92.073C287.047 98.822 274.761 102.347 255.887 102.347C216.533 102.347 187.592 83.394 187.592 51.208V51.196C187.592 19.013 216.533 0.0599976 255.887 0.0599976C274.76 0.0599976 285.608 2.82199 298.907 8.51899L289.435 23.011C279.377 17.649 270.613 16.553 260.204 16.553C235.541 16.553 220.772 31.238 220.772 51.177" fill="#CF122E"/>
<path d="M370.954 0.0379944C332.842 0.0379944 305.361 19.005 305.361 51.193C305.361 83.391 332.842 102.344 370.954 102.344C409.074 102.344 436.551 83.391 436.551 51.193C436.551 19.005 409.074 0.0379944 370.954 0.0379944ZM370.952 86.43C349.994 86.43 338.416 70.682 338.416 51.178C338.416 31.674 349.995 15.934 370.952 15.934C391.914 15.934 403.487 31.673 403.487 51.178C403.487 70.682 391.914 86.43 370.952 86.43Z" fill="#CF122E"/>
<path d="M535.624 58.598V99.762H567.111V2.61099H535.624V39.645H487.491V2.61099H456.062V99.762H487.491V58.598H535.624Z" fill="#CF122E"/>
<path d="M168.605 2.61099H135.44V99.762H168.605V2.61099Z" fill="#CF122E"/>
<path d="M40.311 47.084L40.305 56.372C55.908 68.435 71.799 84.465 83.459 99.762H120.581C107.667 84.593 87.855 66.558 73.259 57.494C90.391 56.778 109.489 49.846 109.489 30.188C109.489 4.942 82.52 0.337997 55.263 0.337997C32.993 0.337997 12.462 1.355 0.182007 2.368V99.762H31.117V17.014C36.842 16.404 42.996 15.722 55.408 15.722C71.355 15.722 79.414 20.983 79.414 30.188C79.416 38.024 76.075 47.424 40.311 47.084Z" fill="#CF122E"/>
<path d="M2.75 129.23H10.672V136.944H2.75V129.23ZM2.75 145.124H10.672V184.864H2.75V145.124Z" fill="#64666A"/>
<path d="M69.965 184.864V159.352C69.965 154.508 68.461 150.533 62.914 150.533C56.42 150.533 54.125 157.086 54.125 163.209V184.864H46.203V159.352C46.203 154.508 44.697 150.533 39.158 150.533C32.656 150.533 30.283 157.086 30.283 163.209V184.864H22.361V154.264C22.361 151.242 22.281 148.15 21.97 145.124H29.413L29.651 151.96C32.262 146.88 36.381 144.333 41.762 144.333C48.022 144.333 52.137 148.068 53.33 152.438C55.228 147.507 60.381 144.333 65.455 144.333C74.078 144.333 77.959 150.216 77.959 158.4V184.865H69.965V184.864Z" fill="#64666A"/>
<path d="M427.49 184.864L427.25 178.581C421.582 189.199 401.672 188.078 401.672 174.371C401.672 164.043 411.524 159.802 427.012 160.539C427.016 160.484 427.862 153.068 422.762 150.779C419.436 149.29 412.336 149.513 406.34 153.068L405.865 146.953C415.068 143.139 434.777 140.744 434.777 159.151V176.036C434.777 179.458 434.933 182.154 435.248 184.863L427.49 184.864ZM419.732 179.847C425.544 178.464 427.259 172.576 427.011 165.388C427.011 165.388 409.025 163.934 409.509 173.937C409.795 179.803 415.425 180.881 419.732 179.847Z" fill="#64666A"/>
<path d="M111.713 184.864L111.473 178.581C105.805 189.199 85.895 188.078 85.895 174.371C85.895 164.043 95.741 159.802 111.235 160.539C111.237 160.484 112.085 153.068 106.983 150.779C103.657 149.29 96.559 149.513 90.563 153.068L90.086 146.953C99.287 143.139 119 140.744 119 159.151V176.036C119 179.458 119.154 182.154 119.471 184.863L111.713 184.864ZM103.955 179.847C109.767 178.464 111.482 172.576 111.234 165.388C111.234 165.388 93.248 163.934 93.73 173.937C94.014 179.803 99.642 180.881 103.955 179.847Z" fill="#64666A"/>
<path d="M490.627 200.749L491.108 193.996C494.586 195.823 498.79 196.92 502.903 196.857C516.602 196.641 515.813 185.236 515.813 177.945C515.813 177.945 511.854 184.824 503.538 184.863C491.972 184.898 487.458 174.762 487.458 164.838C487.458 154.267 491.972 144.331 503.698 144.331C509.159 144.331 513.596 146.718 516.132 151.719V145.122H523.735V182.632C523.734 204.763 504.119 204.939 490.627 200.749ZM505.992 150.45C497.836 150.45 496.014 158.234 496.014 164.913C496.014 171.106 497.916 178.741 505.914 178.741C513.596 178.741 516.053 170.945 516.053 164.913C516.052 158.56 513.67 150.45 505.992 150.45Z" fill="#64666A"/>
<path d="M130.564 200.749L131.041 193.996C134.527 195.823 138.723 196.92 142.838 196.857C156.545 196.641 155.748 185.236 155.748 177.945C155.748 177.945 151.793 184.824 143.476 184.863C131.912 184.898 127.396 174.762 127.396 164.838C127.396 154.267 131.912 144.331 143.634 144.331C149.095 144.331 153.534 146.718 156.072 151.719V145.122H163.666V182.632C163.666 204.763 144.054 204.939 130.564 200.749ZM145.932 150.45C137.774 150.45 135.949 158.234 135.949 164.913C135.949 171.106 137.851 178.741 145.853 178.741C153.535 178.741 155.99 170.945 155.99 164.913C155.99 158.56 153.611 150.45 145.932 150.45Z" fill="#64666A"/>
<path d="M175.379 129.23H183.293V136.944H175.379V129.23ZM175.379 145.124H183.293V184.864H175.379V145.124Z" fill="#64666A"/>
<path d="M540.367 167.057C540.828 180.94 553.144 182.688 564.125 177.385L564.604 183.586C548.694 188.76 532.212 185.71 532.212 164.835C532.212 153.947 539.104 144.332 550.108 144.332C568.774 144.332 566.661 167.057 566.661 167.057H540.367ZM550.191 149.811C543.453 149.811 540.287 157.047 540.287 162.134H559.062C559.062 156.486 556.922 149.811 550.191 149.811Z" fill="#64666A"/>
<path d="M245.273 167.057C245.734 180.94 258.052 182.688 269.039 177.385L269.514 183.586C253.598 188.76 237.117 185.71 237.117 164.835C237.117 153.947 244.014 144.332 255.016 144.332C273.68 144.332 271.571 167.057 271.571 167.057H245.273ZM255.094 149.811C248.362 149.811 245.201 157.047 245.201 162.134H263.967C263.966 156.486 261.834 149.811 255.094 149.811Z" fill="#64666A"/>
<path d="M289.793 176.674H281.318V184.862H289.793V176.674Z" fill="#64666A"/>
<path d="M317.767 164.835C317.767 146.762 335.136 140.937 350.257 145.998L349.782 152.352C339.882 147.707 326.317 150.604 326.317 164.836C326.317 178.613 339.249 182.572 349.866 177.868L350.257 184.147C337.723 188.442 317.767 185.154 317.767 164.835Z" fill="#64666A"/>
<path d="M380.099 144.332C374.558 144.332 370.281 146.797 367.824 151.72V129.23H359.908V184.86H367.824V164.051C367.824 157.854 370.201 150.533 377.488 150.533C384.293 150.533 385.332 155.75 385.332 161.417V184.86H393.322V159.748C393.322 150.686 389.605 144.332 380.099 144.332Z" fill="#64666A"/>
<path d="M470.98 184.864V161.417C470.98 155.855 469.951 150.533 463.132 150.533C455.773 150.533 453.478 157.267 453.478 163.538V184.864H445.554V154.264C445.554 151.242 445.474 148.15 445.156 145.124H452.599L452.839 151.96C455.538 146.951 459.966 144.333 465.673 144.333C475.491 144.333 478.982 150.612 478.982 159.748V184.864H470.98Z" fill="#64666A"/>
<path d="M220.641 184.864V161.417C220.641 155.855 219.612 150.533 212.797 150.533C205.436 150.533 203.139 157.267 203.139 163.538V184.864H195.217V154.264C195.217 151.242 195.135 148.15 194.817 145.124H202.266L202.5 151.96C205.199 146.951 209.633 144.333 215.334 144.333C225.154 144.333 228.637 150.612 228.637 159.748V184.864H220.641Z" fill="#64666A"/>
<path d="M584.881 176.672H576.41V184.864H584.881V176.672Z" fill="#64666A"/>
</svg>
